HIERARCHY
ROOT hip
{
  OFFSET 0.0 0.0 0.0
  CHANNELS 6 Xposition Yposition Zposition Zrotation Yrotation Xrotation
  JOINT torso
  {
    OFFSET 0.0 0.0 0.0
    CHANNELS 3 Zrotation Xrotation Yrotation
    JOINT neck
    {
      OFFSET -31.42098999999993 328.8025209999999 74.3554680000002
      CHANNELS 3 Zrotation Xrotation Yrotation
      JOINT head
      {
        OFFSET 3.3519900000001144 303.81732099999994 206.53942900000015
        CHANNELS 3 Zrotation Xrotation Yrotation
        End Site
        {
          OFFSET 0.0 0.0 0.0
        }
      }
    }
    JOINT left_collar
    {
      OFFSET -31.42098999999993 328.8025209999999 74.3554680000002
      CHANNELS 3 Zrotation Xrotation Yrotation
      JOINT left_upper_arm
      {
        OFFSET -124.490479 -8.162841999999841 8.226441000000023
        CHANNELS 3 Zrotation Xrotation Yrotation
        JOINT left_forearm
        {
          OFFSET -253.595764 -1.5758060000000569 105.0729980000001
          CHANNELS 3 Zrotation Xrotation Yrotation
          JOINT left_hand
          {
            OFFSET -269.48803699999996 0.1478270000000066 -55.346191999999974
            CHANNELS 3 Zrotation Xrotation Yrotation
            End Site
            {
              OFFSET 0.0 0.0 0.0
            }
          }
        }
      }
    }
    JOINT right_collar
    {
      OFFSET -31.42098999999993 328.8025209999999 74.3554680000002
      CHANNELS 3 Zrotation Xrotation Yrotation
      JOINT right_upper_arm
      {
        OFFSET 162.02484099999998 0.46441600000002836 2.2303470000001653
        CHANNELS 3 Zrotation Xrotation Yrotation
        JOINT right_forearm
        {
          OFFSET 240.01246700000004 -25.835875999999985 121.34179699999959
          CHANNELS 3 Zrotation Xrotation Yrotation
          JOINT right_hand
          {
            OFFSET 252.48539699999992 18.910399999999868 -67.53466800000001
            CHANNELS 3 Zrotation Xrotation Yrotation
            End Site
            {
              OFFSET 0.0 0.0 0.0
            }
          }
        }
      }
    }
  }
}
MOTION
Frames: 11
Frame Time: 0.01
-228.99011451347255 210.303393108975 1445.9320588086428 -0.7591873558797396 -4.449959137532954 -26.065106523778898 0.5511737479792287 3.4385596083073837 0.22220477600109081 -7.226703207802657 -8.22512027707925 5.2725916663496 0.0 0.0 0.0 6.569973030281431 -1.413974099318395 15.004369165943539 39.981929087986344 12.060828199627812 12.5034917373128 50.912392521899335 5.928924407539212 -35.67096716330662 0.0 0.0 0.0 3.4207965166108196 -0.4108082685936842 11.060987577313448 -27.84012942396769 5.132863485725681 -24.37581050978793 -58.59049130455863 6.46803764217253 47.84262156500489 0.0 0.0 0.0
-228.91045376681566 210.22937184784 1445.6949684824897 -0.7464624411008263 -4.479990595383985 -26.014018312776525 0.5424060332173066 3.4463097452515683 0.22472241362407785 -7.225623687983955 -8.210882090428601 5.271231295433748 0.0 0.0 0.0 6.56206338759289 -1.4116577614178711 14.98986772085413 39.98556976139208 12.061294778399656 12.505323383655707 50.92758094741662 5.914332115245471 -35.63633754590696 0.0 0.0 0.0 3.4220159864355906 -0.41080782006506933 11.056894941303025 -27.874588130916013 5.1548071603872785 -24.342916174470634 -58.584660750726634 6.483972465715401 47.87787428715732 0.0 0.0 0.0
-228.8300443237191 210.1542857597994 1445.4560732346695 -0.7340163401142387 -4.5103587454327485 -25.96292982469648 0.5335990626813052 3.4540835562618275 0.22724904321930567 -7.224099756274988 -8.196524553369208 5.26954660458943 0.0 0.0 0.0 6.554118772899952 -1.4093505118549101 14.975441749219007 39.98892568985538 12.060728840941652 12.50952001458577 50.94304285846719 5.8998074117734145 -35.60179434092656 0.0 0.0 0.0 3.423138567393664 -0.4108008655880409 11.052932465708677 -27.90875325471337 5.177481379310277 -24.30786737210767 -58.577432252686435 6.500098988247838 47.91409166527209 0.0 0.0 0.0
-228.74822791587397 210.0780104737585 1445.2137257717666 -0.7220338373353625 -4.541118150361222 -25.91160879748554 0.5248150767924705 3.4617824612628425 0.22976238149619418 -7.222018927718685 -8.182025954629816 5.267455932232547 0.0 0.0 0.0 6.5460759883589414 -1.4070347910641163 14.960982753106782 39.991736906498794 12.058951174424557 12.51631793934351 50.95885379539876 5.885445606797654 -35.56751573441987 0.0 0.0 0.0 3.4241799762084923 -0.4107831269842989 11.048918219391194 -27.942462539777736 5.201161741131636 -24.269789460020917 -58.56872479236211 6.516338310053078 47.95114689543098 0.0 0.0 0.0
-228.6643086484719 210.00040933437936 1444.9660465509694 -0.7106871345698716 -4.572335630028779 -25.859746011132263 0.5161098554134795 3.469303115865984 0.23224098065595344 -7.219271012758251 -8.167345750901262 5.264878524798599 0.0 0.0 0.0 6.5378643686664955 -1.4046876112209312 14.946341683988589 39.99377410437961 12.055816409219728 12.525893940089288 50.97501864558371 5.8713358266411255 -35.53368645937 0.0 0.0 0.0 3.4251670932315355 -0.4107498168232314 11.044617919973254 -27.97556043618766 5.226135025371567 -24.227785662885182 -58.558530655431646 6.532602666353237 47.988865581014295 0.0 0.0 0.0
-228.5775730825721 209.92134667803984 1444.7109757698997 -0.7001306208568447 -4.604085644691833 -25.806961114416495 0.5075311427857927 3.4765387524125364 0.23466467306792035 -7.215751963274176 -8.152424843870397 5.261737313858291 0.0 0.0 0.0 6.529408172221103 -1.4022808527523418 14.931329893149913 39.994847874981936 12.051222064327366 12.538350318181609 50.99146024604488 5.857560068810907 -35.500498669765484 0.0 0.0 0.0 3.4261377326833875 -0.41069563575688967 11.039745724489228 -28.0079001490451 5.252688461651236 -24.18096796453501 -58.546923922063634 6.548794842126609 48.02702071189718 0.0 0.0 0.0
-228.48730723087095 209.84070129720368 1444.4463284154788 -0.6904965508716393 -4.636445397075808 -25.752810955638566 0.49911770473203526 3.483380653205024 0.2370149028685206 -7.21136793406476 -8.137186507439212 5.257961874393973 0.0 0.0 0.0 6.520628974360751 -1.399781749760222 14.915721606658051 39.994816163485666 12.045116562304818 12.55370099309685 51.00801199950372 5.844192463174653 -35.468152111394595 0.0 0.0 0.0 3.427139656893595 -0.41061476400185204 11.033967407376858 -28.039346119910288 5.281098628283368 -24.128489134246294 -58.5340648817909 6.56480788729645 48.065329840649 0.0 0.0 0.0
-228.3928093429243 209.75837944041882 1444.169850215025 -0.6818918102153019 -4.6694898317077635 -25.696800254933578 0.4908990396924785 3.4897197211407196 0.23927493724232196 -7.206039404948288 -8.121537977819273 5.253491453391154 0.0 0.0 0.0 6.511447917529851 -1.3971535520150262 14.899257900864914 39.99358961988608 12.037505837316715 12.571859298228897 51.02441513094286 5.831298700250815 -35.43685337240509 0.0 0.0 0.0 3.4282288558154668 -0.4105008522280289 11.026906044150433 -28.06977707689459 5.311620377598906 -24.069574925487867 -58.520199822321125 6.58052520809592 48.1034548754931 0.0 0.0 0.0
-228.29339760499983 209.674326695226 1443.8792723679721 -0.674395866492447 -4.70328670712036 -25.63839433702461 0.4828956900460465 3.4954481063926854 0.2414299643239582 -7.199705156104437 -8.10537269694337 5.248277919085052 0.0 0.0 0.0 6.5017876839846505 -1.394356338023258 14.88165204345199 39.99113461554583 12.028458202896628 12.592628096296442 51.04032095863006 5.818935586570967 -35.40681406824653 0.0 0.0 0.0 3.4294671726363077 -0.4103470180861331 11.01815014657226 -28.099089793286538 5.344476198519779 -24.00355546748583 -58.50565590555573 6.595821101199677 48.14100479689054 0.0 0.0 0.0
-228.18841217053415 209.58853813698676 1443.5723630602388 -0.6680599334781309 -4.7378919199095195 -25.57703354959489 0.4751200421697956 3.500460853769586 0.2434670966425736 -7.1923258562647465 -8.088573171375588 5.242288456195915 0.0 0.0 0.0 6.491574095653956 -1.3913479461056937 14.86259598491261 39.9874737891634 12.018107202485547 12.615692791066952 51.05529824844975 5.807150692544763 -35.37824790958761 0.0 0.0 0.0 3.4309193907464683 -0.4101458535513771 11.007264035274487 -28.12720366505674 5.3798464247535085 -23.92989486861683 -58.49083110088034 6.610561777324931 48.177541467559436 0.0 0.0 0.0
-228.07721126217155 209.50106620493435 1443.2469739974774 -0.6629073165419995 -4.773345261645014 -25.51214894585956 0.46757747044021436 3.5046575480936943 0.24537530674578056 -7.183887025328808 -8.071014378169588 5.23550783253724 0.0 0.0 0.0 6.480737304011142 -1.38808499067782 14.841767758964483 39.982684081786 12.00665223337985 12.640617743354282 51.0688453902765 5.79598206506556 -35.35136670052822 0.0 0.0 0.0 3.432649905736598 -0.4098894461283583 10.99380011994655 -28.15406615176434 5.4178606741260635 -23.84821807653919 -58.47617937692979 6.624606887062288 48.212588543016786 0.0 0.0 0.0
